<svg xmlns="http://www.w3.org/2000/svg" xmlns:xlink="http://www.w3.org/1999/xlink" width="402" zoomAndPan="magnify" viewBox="0 0 301.5 175.5" height="234" preserveAspectRatio="xMidYMid meet" version="1.0"><defs><clipPath id="6dcaabb480"><path d="M 0.179688 0 L 300.570312 0 L 300.570312 174.773438 L 0.179688 174.773438 Z M 0.179688 0 " clip-rule="nonzero"/></clipPath><clipPath id="a2d7444d21"><path d="M 285.226562 174.773438 L 15.273438 174.773438 C 6.957031 174.773438 0.179688 167.996094 0.179688 159.679688 L 0.179688 15.09375 C 0.179688 6.777344 6.957031 0 15.273438 0 L 285.226562 0 C 293.542969 0 300.320312 6.777344 300.320312 15.09375 L 300.320312 159.679688 C 300.320312 167.996094 293.542969 174.773438 285.226562 174.773438 Z M 285.226562 174.773438 " clip-rule="nonzero"/></clipPath><clipPath id="e33b0ab658"><path d="M 7.984375 9.246094 L 292.4375 9.246094 L 292.4375 165.390625 L 7.984375 165.390625 Z M 7.984375 9.246094 " clip-rule="nonzero"/></clipPath></defs><g clip-path="url(#6dcaabb480)"><g clip-path="url(#a2d7444d21)"><path fill="#fdd8d8" d="M 0.179688 0 L 300.570312 0 L 300.570312 174.773438 L 0.179688 174.773438 Z M 0.179688 0 " fill-opacity="1" fill-rule="nonzero"/></g></g><g clip-path="url(#e33b0ab658)"><path fill="#703b51" d="M 274.542969 165.441406 L 273.691406 165.441406 C 272.972656 165.441406 272.417969 164.890625 272.417969 164.167969 C 272.417969 163.445312 272.972656 162.890625 273.691406 162.890625 L 274.542969 162.890625 C 275.265625 162.890625 275.816406 163.445312 275.816406 164.167969 C 275.816406 164.890625 275.265625 165.441406 274.542969 165.441406 Z M 265.195312 165.441406 L 264.347656 165.441406 C 263.625 165.441406 263.074219 164.890625 263.074219 164.167969 C 263.074219 163.445312 263.625 162.890625 264.347656 162.890625 L 265.195312 162.890625 C 265.917969 162.890625 266.472656 163.445312 266.472656 164.167969 C 266.472656 164.890625 265.917969 165.441406 265.195312 165.441406 Z M 255.851562 165.441406 L 255.003906 165.441406 C 254.28125 165.441406 253.726562 164.890625 253.726562 164.167969 C 253.726562 163.445312 254.28125 162.890625 255.003906 162.890625 L 255.851562 162.890625 C 256.574219 162.890625 257.125 163.445312 257.125 164.167969 C 257.125 164.890625 256.53125 165.441406 255.851562 165.441406 Z M 246.507812 165.441406 L 245.65625 165.441406 C 244.933594 165.441406 244.382812 164.890625 244.382812 164.167969 C 244.382812 163.445312 244.933594 162.890625 245.65625 162.890625 L 246.507812 162.890625 C 247.226562 162.890625 247.78125 163.445312 247.78125 164.167969 C 247.78125 164.890625 247.1875 165.441406 246.507812 165.441406 Z M 237.117188 165.441406 L 236.269531 165.441406 C 235.546875 165.441406 234.992188 164.890625 234.992188 164.167969 C 234.992188 163.445312 235.546875 162.890625 236.269531 162.890625 L 237.117188 162.890625 C 237.839844 162.890625 238.390625 163.445312 238.390625 164.167969 C 238.390625 164.890625 237.839844 165.441406 237.117188 165.441406 Z M 227.773438 165.441406 L 226.921875 165.441406 C 226.199219 165.441406 225.648438 164.890625 225.648438 164.167969 C 225.648438 163.445312 226.199219 162.890625 226.921875 162.890625 L 227.773438 162.890625 C 228.496094 162.890625 229.046875 163.445312 229.046875 164.167969 C 229.046875 164.890625 228.453125 165.441406 227.773438 165.441406 Z M 218.425781 165.441406 L 217.578125 165.441406 C 216.855469 165.441406 216.304688 164.890625 216.304688 164.167969 C 216.304688 163.445312 216.855469 162.890625 217.578125 162.890625 L 218.425781 162.890625 C 219.148438 162.890625 219.703125 163.445312 219.703125 164.167969 C 219.703125 164.890625 219.105469 165.441406 218.425781 165.441406 Z M 209.039062 165.441406 L 208.1875 165.441406 C 207.46875 165.441406 206.914062 164.890625 206.914062 164.167969 C 206.914062 163.445312 207.46875 162.890625 208.1875 162.890625 L 209.039062 162.890625 C 209.761719 162.890625 210.3125 163.445312 210.3125 164.167969 C 210.3125 164.890625 209.761719 165.441406 209.039062 165.441406 Z M 199.695312 165.441406 L 198.84375 165.441406 C 198.121094 165.441406 197.570312 164.890625 197.570312 164.167969 C 197.570312 163.445312 198.121094 162.890625 198.84375 162.890625 L 199.695312 162.890625 C 200.414062 162.890625 200.96875 163.445312 200.96875 164.167969 C 200.96875 164.890625 200.414062 165.441406 199.695312 165.441406 Z M 190.347656 165.441406 L 189.5 165.441406 C 188.777344 165.441406 188.222656 164.890625 188.222656 164.167969 C 188.222656 163.445312 188.777344 162.890625 189.5 162.890625 L 190.347656 162.890625 C 191.070312 162.890625 191.621094 163.445312 191.621094 164.167969 C 191.621094 164.890625 191.027344 165.441406 190.347656 165.441406 Z M 180.960938 165.441406 L 180.109375 165.441406 C 179.386719 165.441406 178.835938 164.890625 178.835938 164.167969 C 178.835938 163.445312 179.386719 162.890625 180.109375 162.890625 L 180.960938 162.890625 C 181.683594 162.890625 182.234375 163.445312 182.234375 164.167969 C 182.234375 164.890625 181.683594 165.441406 180.960938 165.441406 Z M 171.613281 165.441406 L 170.765625 165.441406 C 170.042969 165.441406 169.492188 164.890625 169.492188 164.167969 C 169.492188 163.445312 170.042969 162.890625 170.765625 162.890625 L 171.613281 162.890625 C 172.335938 162.890625 172.890625 163.445312 172.890625 164.167969 C 172.890625 164.890625 172.335938 165.441406 171.613281 165.441406 Z M 162.269531 165.441406 L 161.417969 165.441406 C 160.695312 165.441406 160.144531 164.890625 160.144531 164.167969 C 160.144531 163.445312 160.695312 162.890625 161.417969 162.890625 L 162.269531 162.890625 C 162.992188 162.890625 163.542969 163.445312 163.542969 164.167969 C 163.542969 164.890625 162.949219 165.441406 162.269531 165.441406 Z M 152.921875 165.441406 L 152.074219 165.441406 C 151.351562 165.441406 150.800781 164.890625 150.800781 164.167969 C 150.800781 163.445312 151.351562 162.890625 152.074219 162.890625 L 152.921875 162.890625 C 153.644531 162.890625 154.199219 163.445312 154.199219 164.167969 C 154.199219 164.890625 153.601562 165.441406 152.921875 165.441406 Z M 143.535156 165.441406 L 142.6875 165.441406 C 141.964844 165.441406 141.410156 164.890625 141.410156 164.167969 C 141.410156 163.445312 141.964844 162.890625 142.6875 162.890625 L 143.535156 162.890625 C 144.257812 162.890625 144.808594 163.445312 144.808594 164.167969 C 144.808594 164.890625 144.257812 165.441406 143.535156 165.441406 Z M 134.191406 165.441406 L 133.339844 165.441406 C 132.617188 165.441406 132.066406 164.890625 132.066406 164.167969 C 132.066406 163.445312 132.617188 162.890625 133.339844 162.890625 L 134.191406 162.890625 C 134.910156 162.890625 135.464844 163.445312 135.464844 164.167969 C 135.464844 164.890625 134.871094 165.441406 134.191406 165.441406 Z M 124.84375 165.441406 L 123.996094 165.441406 C 123.273438 165.441406 122.71875 164.890625 122.71875 164.167969 C 122.71875 163.445312 123.273438 162.890625 123.996094 162.890625 L 124.84375 162.890625 C 125.566406 162.890625 126.117188 163.445312 126.117188 164.167969 C 126.117188 164.890625 125.523438 165.441406 124.84375 165.441406 Z M 115.457031 165.441406 L 114.605469 165.441406 C 113.882812 165.441406 113.332031 164.890625 113.332031 164.167969 C 113.332031 163.445312 113.882812 162.890625 114.605469 162.890625 L 115.457031 162.890625 C 116.179688 162.890625 116.730469 163.445312 116.730469 164.167969 C 116.730469 164.890625 116.179688 165.441406 115.457031 165.441406 Z M 106.109375 165.441406 L 105.261719 165.441406 C 104.539062 165.441406 103.988281 164.890625 103.988281 164.167969 C 103.988281 163.445312 104.539062 162.890625 105.261719 162.890625 L 106.109375 162.890625 C 106.832031 162.890625 107.386719 163.445312 107.386719 164.167969 C 107.386719 164.890625 106.832031 165.441406 106.109375 165.441406 Z M 96.765625 165.441406 L 95.914062 165.441406 C 95.195312 165.441406 94.640625 164.890625 94.640625 164.167969 C 94.640625 163.445312 95.195312 162.890625 95.914062 162.890625 L 96.765625 162.890625 C 97.488281 162.890625 98.039062 163.445312 98.039062 164.167969 C 98.039062 164.890625 97.445312 165.441406 96.765625 165.441406 Z M 87.378906 165.441406 L 86.527344 165.441406 C 85.804688 165.441406 85.253906 164.890625 85.253906 164.167969 C 85.253906 163.445312 85.804688 162.890625 86.527344 162.890625 L 87.378906 162.890625 C 88.097656 162.890625 88.652344 163.445312 88.652344 164.167969 C 88.652344 164.890625 88.097656 165.441406 87.378906 165.441406 Z M 78.03125 165.441406 L 77.183594 165.441406 C 76.460938 165.441406 75.90625 164.890625 75.90625 164.167969 C 75.90625 163.445312 76.460938 162.890625 77.183594 162.890625 L 78.03125 162.890625 C 78.753906 162.890625 79.304688 163.445312 79.304688 164.167969 C 79.304688 164.890625 78.753906 165.441406 78.03125 165.441406 Z M 68.6875 165.441406 L 67.835938 165.441406 C 67.113281 165.441406 66.5625 164.890625 66.5625 164.167969 C 66.5625 163.445312 67.113281 162.890625 67.835938 162.890625 L 68.6875 162.890625 C 69.40625 162.890625 69.960938 163.445312 69.960938 164.167969 C 69.960938 164.890625 69.367188 165.441406 68.6875 165.441406 Z M 59.339844 165.441406 L 58.492188 165.441406 C 57.769531 165.441406 57.214844 164.890625 57.214844 164.167969 C 57.214844 163.445312 57.769531 162.890625 58.492188 162.890625 L 59.339844 162.890625 C 60.0625 162.890625 60.613281 163.445312 60.613281 164.167969 C 60.613281 164.890625 60.019531 165.441406 59.339844 165.441406 Z M 49.953125 165.441406 L 49.101562 165.441406 C 48.378906 165.441406 47.828125 164.890625 47.828125 164.167969 C 47.828125 163.445312 48.378906 162.890625 49.101562 162.890625 L 49.953125 162.890625 C 50.675781 162.890625 51.226562 163.445312 51.226562 164.167969 C 51.226562 164.890625 50.675781 165.441406 49.953125 165.441406 Z M 40.605469 165.441406 L 39.757812 165.441406 C 39.035156 165.441406 38.484375 164.890625 38.484375 164.167969 C 38.484375 163.445312 39.035156 162.890625 39.757812 162.890625 L 40.605469 162.890625 C 41.328125 162.890625 41.882812 163.445312 41.882812 164.167969 C 41.882812 164.890625 41.285156 165.441406 40.605469 165.441406 Z M 31.261719 165.441406 L 30.410156 165.441406 C 29.691406 165.441406 29.136719 164.890625 29.136719 164.167969 C 29.136719 163.445312 29.691406 162.890625 30.410156 162.890625 L 31.261719 162.890625 C 31.984375 162.890625 32.535156 163.445312 32.535156 164.167969 C 32.535156 164.890625 31.941406 165.441406 31.261719 165.441406 Z M 21.914062 164.929688 C 21.832031 164.929688 21.703125 164.929688 21.617188 164.890625 C 21.320312 164.804688 21.023438 164.71875 20.726562 164.632812 C 20.046875 164.421875 19.664062 163.699219 19.875 163.0625 C 20.089844 162.382812 20.8125 162 21.449219 162.210938 C 21.703125 162.296875 21.957031 162.339844 22.214844 162.425781 C 22.894531 162.59375 23.316406 163.273438 23.148438 163.953125 C 23.019531 164.550781 22.511719 164.929688 21.914062 164.929688 Z M 282.699219 163.273438 C 282.273438 163.273438 281.808594 163.0625 281.59375 162.636719 C 281.253906 162.042969 281.46875 161.234375 282.0625 160.894531 C 282.273438 160.769531 282.527344 160.640625 282.742188 160.511719 C 283.335938 160.132812 284.144531 160.300781 284.484375 160.894531 C 284.867188 161.492188 284.695312 162.296875 284.101562 162.636719 C 283.847656 162.808594 283.589844 162.933594 283.335938 163.105469 C 283.125 163.230469 282.910156 163.273438 282.699219 163.273438 Z M 13.929688 160.300781 C 13.589844 160.300781 13.25 160.171875 12.996094 159.917969 C 12.78125 159.707031 12.570312 159.492188 12.359375 159.238281 C 11.890625 158.6875 11.933594 157.921875 12.484375 157.453125 C 13.039062 156.988281 13.800781 157.03125 14.269531 157.582031 C 14.4375 157.792969 14.609375 157.964844 14.777344 158.175781 C 15.246094 158.6875 15.246094 159.492188 14.738281 159.960938 C 14.566406 160.171875 14.269531 160.300781 13.929688 160.300781 Z M 289.199219 156.734375 C 288.984375 156.734375 288.773438 156.691406 288.605469 156.5625 C 287.964844 156.222656 287.753906 155.457031 288.09375 154.820312 C 288.222656 154.609375 288.347656 154.355469 288.476562 154.140625 C 288.773438 153.503906 289.539062 153.25 290.175781 153.546875 C 290.8125 153.84375 291.066406 154.609375 290.769531 155.246094 C 290.640625 155.5 290.515625 155.796875 290.34375 156.054688 C 290.089844 156.476562 289.621094 156.734375 289.199219 156.734375 Z M 9.597656 152.144531 C 9.003906 152.144531 8.492188 151.71875 8.363281 151.125 C 8.324219 150.828125 8.238281 150.53125 8.195312 150.234375 C 8.066406 149.554688 8.578125 148.875 9.257812 148.789062 C 9.9375 148.660156 10.617188 149.171875 10.703125 149.851562 C 10.742188 150.105469 10.785156 150.359375 10.828125 150.617188 C 10.957031 151.296875 10.53125 151.976562 9.851562 152.144531 C 9.808594 152.101562 9.683594 152.144531 9.597656 152.144531 Z M 291.238281 147.726562 C 290.515625 147.726562 289.960938 147.175781 289.960938 146.453125 L 289.960938 145.601562 C 289.960938 144.882812 290.515625 144.328125 291.238281 144.328125 C 291.960938 144.328125 292.511719 144.882812 292.511719 145.601562 L 292.511719 146.453125 C 292.511719 147.132812 291.960938 147.726562 291.238281 147.726562 Z M 9.257812 142.800781 C 8.535156 142.800781 7.984375 142.246094 7.984375 141.523438 L 7.984375 140.675781 C 7.984375 139.953125 8.535156 139.402344 9.257812 139.402344 C 9.980469 139.402344 10.53125 139.953125 10.53125 140.675781 L 10.53125 141.523438 C 10.53125 142.246094 9.980469 142.800781 9.257812 142.800781 Z M 291.238281 138.339844 C 290.515625 138.339844 289.960938 137.785156 289.960938 137.066406 L 289.960938 136.214844 C 289.960938 135.492188 290.515625 134.941406 291.238281 134.941406 C 291.960938 134.941406 292.511719 135.492188 292.511719 136.214844 L 292.511719 137.066406 C 292.511719 137.785156 291.960938 138.339844 291.238281 138.339844 Z M 9.257812 133.453125 C 8.535156 133.453125 7.984375 132.902344 7.984375 132.179688 L 7.984375 131.328125 C 7.984375 130.609375 8.535156 130.054688 9.257812 130.054688 C 9.980469 130.054688 10.53125 130.609375 10.53125 131.328125 L 10.53125 132.179688 C 10.53125 132.859375 9.980469 133.453125 9.257812 133.453125 Z M 291.238281 128.992188 C 290.515625 128.992188 289.960938 128.441406 289.960938 127.71875 L 289.960938 126.871094 C 289.960938 126.148438 290.515625 125.59375 291.238281 125.59375 C 291.960938 125.59375 292.511719 126.148438 292.511719 126.871094 L 292.511719 127.71875 C 292.511719 128.441406 291.960938 128.992188 291.238281 128.992188 Z M 9.257812 124.066406 C 8.535156 124.066406 7.984375 123.515625 7.984375 122.792969 L 7.984375 121.941406 C 7.984375 121.21875 8.535156 120.667969 9.257812 120.667969 C 9.980469 120.667969 10.53125 121.21875 10.53125 121.941406 L 10.53125 122.792969 C 10.53125 123.515625 9.980469 124.066406 9.257812 124.066406 Z M 291.238281 119.648438 C 290.515625 119.648438 289.960938 119.097656 289.960938 118.375 L 289.960938 117.523438 C 289.960938 116.800781 290.515625 116.25 291.238281 116.25 C 291.960938 116.25 292.511719 116.800781 292.511719 117.523438 L 292.511719 118.375 C 292.511719 119.054688 291.960938 119.648438 291.238281 119.648438 Z M 9.257812 114.71875 C 8.535156 114.71875 7.984375 114.167969 7.984375 113.445312 L 7.984375 112.597656 C 7.984375 111.875 8.535156 111.320312 9.257812 111.320312 C 9.980469 111.320312 10.53125 111.875 10.53125 112.597656 L 10.53125 113.445312 C 10.53125 114.167969 9.980469 114.71875 9.257812 114.71875 Z M 291.238281 110.261719 C 290.515625 110.261719 289.960938 109.707031 289.960938 108.984375 L 289.960938 108.136719 C 289.960938 107.414062 290.515625 106.863281 291.238281 106.863281 C 291.960938 106.863281 292.511719 107.414062 292.511719 108.136719 L 292.511719 108.984375 C 292.511719 109.707031 291.960938 110.261719 291.238281 110.261719 Z M 9.257812 105.375 C 8.535156 105.375 7.984375 104.824219 7.984375 104.101562 L 7.984375 103.25 C 7.984375 102.527344 8.535156 101.976562 9.257812 101.976562 C 9.980469 101.976562 10.53125 102.527344 10.53125 103.25 L 10.53125 104.101562 C 10.53125 104.78125 9.980469 105.375 9.257812 105.375 Z M 291.238281 100.914062 C 290.515625 100.914062 289.960938 100.363281 289.960938 99.640625 L 289.960938 98.789062 C 289.960938 98.070312 290.515625 97.515625 291.238281 97.515625 C 291.960938 97.515625 292.511719 98.070312 292.511719 98.789062 L 292.511719 99.640625 C 292.511719 100.363281 291.960938 100.914062 291.238281 100.914062 Z M 9.257812 95.988281 C 8.535156 95.988281 7.984375 95.433594 7.984375 94.710938 L 7.984375 93.863281 C 7.984375 93.140625 8.535156 92.589844 9.257812 92.589844 C 9.980469 92.589844 10.53125 93.140625 10.53125 93.863281 L 10.53125 94.710938 C 10.53125 95.433594 9.980469 95.988281 9.257812 95.988281 Z M 291.238281 91.570312 C 290.515625 91.570312 289.960938 91.015625 289.960938 90.292969 L 289.960938 89.445312 C 289.960938 88.722656 290.515625 88.171875 291.238281 88.171875 C 291.960938 88.171875 292.511719 88.722656 292.511719 89.445312 L 292.511719 90.292969 C 292.511719 90.972656 291.960938 91.570312 291.238281 91.570312 Z M 9.257812 86.640625 C 8.535156 86.640625 7.984375 86.089844 7.984375 85.367188 L 7.984375 84.515625 C 7.984375 83.796875 8.535156 83.242188 9.257812 83.242188 C 9.980469 83.242188 10.53125 83.796875 10.53125 84.515625 L 10.53125 85.367188 C 10.53125 86.089844 9.980469 86.640625 9.257812 86.640625 Z M 291.238281 82.222656 C 290.515625 82.222656 289.960938 81.671875 289.960938 80.949219 L 289.960938 80.097656 C 289.960938 79.378906 290.515625 78.824219 291.238281 78.824219 C 291.960938 78.824219 292.511719 79.378906 292.511719 80.097656 L 292.511719 80.949219 C 292.511719 81.628906 291.960938 82.222656 291.238281 82.222656 Z M 9.257812 77.296875 C 8.535156 77.296875 7.984375 76.742188 7.984375 76.019531 L 7.984375 75.171875 C 7.984375 74.449219 8.535156 73.898438 9.257812 73.898438 C 9.980469 73.898438 10.53125 74.449219 10.53125 75.171875 L 10.53125 76.019531 C 10.53125 76.699219 9.980469 77.296875 9.257812 77.296875 Z M 291.238281 72.835938 C 290.515625 72.835938 289.960938 72.285156 289.960938 71.5625 L 289.960938 70.710938 C 289.960938 69.988281 290.515625 69.4375 291.238281 69.4375 C 291.960938 69.4375 292.511719 69.988281 292.511719 70.710938 L 292.511719 71.5625 C 292.511719 72.285156 291.960938 72.835938 291.238281 72.835938 Z M 9.257812 67.949219 C 8.535156 67.949219 7.984375 67.398438 7.984375 66.675781 L 7.984375 65.828125 C 7.984375 65.105469 8.535156 64.550781 9.257812 64.550781 C 9.980469 64.550781 10.53125 65.105469 10.53125 65.828125 L 10.53125 66.675781 C 10.53125 67.355469 9.980469 67.949219 9.257812 67.949219 Z M 291.238281 63.488281 C 290.515625 63.488281 289.960938 62.9375 289.960938 62.214844 L 289.960938 61.367188 C 289.960938 60.644531 290.515625 60.089844 291.238281 60.089844 C 291.960938 60.089844 292.511719 60.644531 292.511719 61.367188 L 292.511719 62.214844 C 292.511719 62.894531 291.960938 63.488281 291.238281 63.488281 Z M 9.257812 58.5625 C 8.535156 58.5625 7.984375 58.011719 7.984375 57.289062 L 7.984375 56.4375 C 7.984375 55.714844 8.535156 55.164062 9.257812 55.164062 C 9.980469 55.164062 10.53125 55.714844 10.53125 56.4375 L 10.53125 57.289062 C 10.53125 58.011719 9.980469 58.5625 9.257812 58.5625 Z M 291.238281 54.144531 C 290.515625 54.144531 289.960938 53.59375 289.960938 52.871094 L 289.960938 52.019531 C 289.960938 51.296875 290.515625 50.746094 291.238281 50.746094 C 291.960938 50.746094 292.511719 51.296875 292.511719 52.019531 L 292.511719 52.871094 C 292.511719 53.550781 291.960938 54.144531 291.238281 54.144531 Z M 9.257812 49.214844 C 8.535156 49.214844 7.984375 48.664062 7.984375 47.941406 L 7.984375 47.09375 C 7.984375 46.371094 8.535156 45.820312 9.257812 45.820312 C 9.980469 45.820312 10.53125 46.371094 10.53125 47.09375 L 10.53125 47.941406 C 10.53125 48.664062 9.980469 49.214844 9.257812 49.214844 Z M 291.238281 44.757812 C 290.515625 44.757812 289.960938 44.203125 289.960938 43.480469 L 289.960938 42.632812 C 289.960938 41.910156 290.515625 41.359375 291.238281 41.359375 C 291.960938 41.359375 292.511719 41.910156 292.511719 42.632812 L 292.511719 43.480469 C 292.511719 44.203125 291.960938 44.757812 291.238281 44.757812 Z M 9.257812 39.871094 C 8.535156 39.871094 7.984375 39.320312 7.984375 38.597656 L 7.984375 37.746094 C 7.984375 37.023438 8.535156 36.472656 9.257812 36.472656 C 9.980469 36.472656 10.53125 37.023438 10.53125 37.746094 L 10.53125 38.597656 C 10.53125 39.277344 9.980469 39.871094 9.257812 39.871094 Z M 291.238281 35.410156 C 290.515625 35.410156 289.960938 34.859375 289.960938 34.136719 L 289.960938 33.285156 C 289.960938 32.566406 290.515625 32.011719 291.238281 32.011719 C 291.960938 32.011719 292.511719 32.566406 292.511719 33.285156 L 292.511719 34.136719 C 292.511719 34.859375 291.960938 35.410156 291.238281 35.410156 Z M 9.257812 30.484375 C 8.535156 30.484375 7.984375 29.929688 7.984375 29.207031 L 7.984375 28.359375 C 7.984375 27.636719 8.535156 27.085938 9.257812 27.085938 C 9.980469 27.085938 10.53125 27.636719 10.53125 28.359375 L 10.53125 29.207031 C 10.53125 29.929688 9.980469 30.484375 9.257812 30.484375 Z M 291.066406 26.066406 C 290.429688 26.066406 289.921875 25.597656 289.792969 25.003906 C 289.75 24.75 289.707031 24.492188 289.664062 24.238281 C 289.539062 23.558594 289.964844 22.878906 290.640625 22.75 C 291.320312 22.625 292 23.050781 292.128906 23.730469 C 292.171875 24.027344 292.257812 24.324219 292.300781 24.621094 C 292.425781 25.300781 291.917969 25.980469 291.238281 26.066406 C 291.195312 26.066406 291.109375 26.066406 291.066406 26.066406 Z M 10.914062 21.390625 C 10.742188 21.390625 10.53125 21.351562 10.363281 21.265625 C 9.722656 20.96875 9.46875 20.203125 9.765625 19.566406 C 9.894531 19.3125 10.023438 19.011719 10.191406 18.757812 C 10.53125 18.121094 11.296875 17.910156 11.933594 18.25 C 12.570312 18.589844 12.78125 19.351562 12.441406 19.992188 C 12.316406 20.203125 12.1875 20.457031 12.101562 20.671875 C 11.847656 21.136719 11.382812 21.390625 10.914062 21.390625 Z M 287.203125 17.695312 C 286.863281 17.695312 286.480469 17.527344 286.226562 17.273438 C 286.054688 17.058594 285.886719 16.890625 285.714844 16.675781 C 285.246094 16.167969 285.246094 15.359375 285.757812 14.894531 C 286.265625 14.425781 287.074219 14.425781 287.542969 14.9375 C 287.753906 15.148438 287.964844 15.359375 288.136719 15.617188 C 288.605469 16.167969 288.519531 16.933594 288.007812 17.398438 C 287.796875 17.570312 287.5 17.695312 287.203125 17.695312 Z M 17.03125 14.46875 C 16.605469 14.46875 16.179688 14.257812 15.96875 13.875 C 15.585938 13.277344 15.757812 12.472656 16.351562 12.132812 C 16.605469 11.960938 16.859375 11.792969 17.117188 11.664062 C 17.710938 11.324219 18.515625 11.539062 18.855469 12.132812 C 19.195312 12.726562 18.984375 13.535156 18.390625 13.875 C 18.175781 14 17.921875 14.128906 17.710938 14.257812 C 17.496094 14.425781 17.285156 14.46875 17.03125 14.46875 Z M 279.46875 12.640625 C 279.34375 12.640625 279.214844 12.640625 279.089844 12.597656 C 278.832031 12.515625 278.578125 12.472656 278.324219 12.386719 C 277.644531 12.21875 277.21875 11.539062 277.390625 10.859375 C 277.558594 10.179688 278.238281 9.753906 278.917969 9.921875 C 279.214844 10.007812 279.511719 10.09375 279.808594 10.179688 C 280.488281 10.390625 280.871094 11.113281 280.660156 11.792969 C 280.488281 12.257812 280.023438 12.640625 279.46875 12.640625 Z M 25.910156 11.878906 C 25.230469 11.878906 24.632812 11.324219 24.632812 10.601562 C 24.632812 9.878906 25.1875 9.328125 25.910156 9.328125 L 26.886719 9.328125 C 27.609375 9.328125 28.160156 9.878906 28.160156 10.601562 C 28.160156 11.324219 27.609375 11.878906 26.886719 11.878906 Z M 270.167969 11.878906 L 269.316406 11.878906 C 268.59375 11.878906 268.042969 11.324219 268.042969 10.601562 C 268.042969 9.878906 268.59375 9.328125 269.316406 9.328125 L 270.167969 9.328125 C 270.890625 9.328125 271.441406 9.878906 271.441406 10.601562 C 271.441406 11.324219 270.890625 11.878906 270.167969 11.878906 Z M 260.820312 11.878906 L 259.972656 11.878906 C 259.25 11.878906 258.699219 11.324219 258.699219 10.601562 C 258.699219 9.878906 259.25 9.328125 259.972656 9.328125 L 260.820312 9.328125 C 261.542969 9.328125 262.097656 9.878906 262.097656 10.601562 C 262.097656 11.324219 261.5 11.878906 260.820312 11.878906 Z M 251.476562 11.878906 L 250.625 11.878906 C 249.90625 11.878906 249.351562 11.324219 249.351562 10.601562 C 249.351562 9.878906 249.90625 9.328125 250.625 9.328125 L 251.476562 9.328125 C 252.199219 9.328125 252.75 9.878906 252.75 10.601562 C 252.75 11.324219 252.15625 11.878906 251.476562 11.878906 Z M 242.089844 11.878906 L 241.238281 11.878906 C 240.515625 11.878906 239.964844 11.324219 239.964844 10.601562 C 239.964844 9.878906 240.515625 9.328125 241.238281 9.328125 L 242.089844 9.328125 C 242.808594 9.328125 243.363281 9.878906 243.363281 10.601562 C 243.363281 11.324219 242.808594 11.878906 242.089844 11.878906 Z M 232.742188 11.878906 L 231.894531 11.878906 C 231.171875 11.878906 230.617188 11.324219 230.617188 10.601562 C 230.617188 9.878906 231.171875 9.328125 231.894531 9.328125 L 232.742188 9.328125 C 233.464844 9.328125 234.015625 9.878906 234.015625 10.601562 C 234.015625 11.324219 233.464844 11.878906 232.742188 11.878906 Z M 223.398438 11.878906 L 222.546875 11.878906 C 221.824219 11.878906 221.273438 11.324219 221.273438 10.601562 C 221.273438 9.878906 221.824219 9.328125 222.546875 9.328125 L 223.398438 9.328125 C 224.121094 9.328125 224.671875 9.878906 224.671875 10.601562 C 224.671875 11.324219 224.078125 11.878906 223.398438 11.878906 Z M 214.007812 11.878906 L 213.160156 11.878906 C 212.4375 11.878906 211.886719 11.324219 211.886719 10.601562 C 211.886719 9.878906 212.4375 9.328125 213.160156 9.328125 L 214.007812 9.328125 C 214.730469 9.328125 215.285156 9.878906 215.285156 10.601562 C 215.285156 11.324219 214.730469 11.878906 214.007812 11.878906 Z M 204.664062 11.878906 L 203.8125 11.878906 C 203.09375 11.878906 202.539062 11.324219 202.539062 10.601562 C 202.539062 9.878906 203.09375 9.328125 203.8125 9.328125 L 204.664062 9.328125 C 205.386719 9.328125 205.9375 9.878906 205.9375 10.601562 C 205.9375 11.324219 205.386719 11.878906 204.664062 11.878906 Z M 195.316406 11.878906 L 194.46875 11.878906 C 193.746094 11.878906 193.195312 11.324219 193.195312 10.601562 C 193.195312 9.878906 193.746094 9.328125 194.46875 9.328125 L 195.316406 9.328125 C 196.039062 9.328125 196.59375 9.878906 196.59375 10.601562 C 196.59375 11.324219 195.996094 11.878906 195.316406 11.878906 Z M 185.972656 11.878906 L 185.121094 11.878906 C 184.402344 11.878906 183.847656 11.324219 183.847656 10.601562 C 183.847656 9.878906 184.402344 9.328125 185.121094 9.328125 L 185.972656 9.328125 C 186.695312 9.328125 187.246094 9.878906 187.246094 10.601562 C 187.246094 11.324219 186.652344 11.878906 185.972656 11.878906 Z M 176.585938 11.878906 L 175.734375 11.878906 C 175.011719 11.878906 174.460938 11.324219 174.460938 10.601562 C 174.460938 9.878906 175.011719 9.328125 175.734375 9.328125 L 176.585938 9.328125 C 177.308594 9.328125 177.859375 9.878906 177.859375 10.601562 C 177.859375 11.324219 177.308594 11.878906 176.585938 11.878906 Z M 167.238281 11.878906 L 166.390625 11.878906 C 165.667969 11.878906 165.113281 11.324219 165.113281 10.601562 C 165.113281 9.878906 165.667969 9.328125 166.390625 9.328125 L 167.238281 9.328125 C 167.960938 9.328125 168.511719 9.878906 168.511719 10.601562 C 168.511719 11.324219 167.917969 11.878906 167.238281 11.878906 Z M 157.894531 11.878906 L 157.042969 11.878906 C 156.320312 11.878906 155.769531 11.324219 155.769531 10.601562 C 155.769531 9.878906 156.320312 9.328125 157.042969 9.328125 L 157.894531 9.328125 C 158.617188 9.328125 159.167969 9.878906 159.167969 10.601562 C 159.167969 11.324219 158.574219 11.878906 157.894531 11.878906 Z M 148.503906 11.878906 L 147.65625 11.878906 C 146.933594 11.878906 146.382812 11.324219 146.382812 10.601562 C 146.382812 9.878906 146.933594 9.328125 147.65625 9.328125 L 148.503906 9.328125 C 149.226562 9.328125 149.78125 9.878906 149.78125 10.601562 C 149.78125 11.324219 149.226562 11.878906 148.503906 11.878906 Z M 139.160156 11.878906 L 138.308594 11.878906 C 137.589844 11.878906 137.035156 11.324219 137.035156 10.601562 C 137.035156 9.878906 137.589844 9.328125 138.308594 9.328125 L 139.160156 9.328125 C 139.882812 9.328125 140.433594 9.878906 140.433594 10.601562 C 140.433594 11.324219 139.882812 11.878906 139.160156 11.878906 Z M 129.8125 11.878906 L 128.964844 11.878906 C 128.242188 11.878906 127.691406 11.324219 127.691406 10.601562 C 127.691406 9.878906 128.242188 9.328125 128.964844 9.328125 L 129.8125 9.328125 C 130.535156 9.328125 131.089844 9.878906 131.089844 10.601562 C 131.089844 11.324219 130.492188 11.878906 129.8125 11.878906 Z M 120.425781 11.878906 L 119.578125 11.878906 C 118.855469 11.878906 118.300781 11.324219 118.300781 10.601562 C 118.300781 9.878906 118.855469 9.328125 119.578125 9.328125 L 120.425781 9.328125 C 121.148438 9.328125 121.699219 9.878906 121.699219 10.601562 C 121.699219 11.324219 121.148438 11.878906 120.425781 11.878906 Z M 111.082031 11.878906 L 110.230469 11.878906 C 109.507812 11.878906 108.957031 11.324219 108.957031 10.601562 C 108.957031 9.878906 109.507812 9.328125 110.230469 9.328125 L 111.082031 9.328125 C 111.804688 9.328125 112.355469 9.878906 112.355469 10.601562 C 112.355469 11.324219 111.804688 11.878906 111.082031 11.878906 Z M 101.734375 11.878906 L 100.886719 11.878906 C 100.164062 11.878906 99.609375 11.324219 99.609375 10.601562 C 99.609375 9.878906 100.164062 9.328125 100.886719 9.328125 L 101.734375 9.328125 C 102.457031 9.328125 103.007812 9.878906 103.007812 10.601562 C 103.007812 11.324219 102.414062 11.878906 101.734375 11.878906 Z M 92.347656 11.878906 L 91.496094 11.878906 C 90.777344 11.878906 90.222656 11.324219 90.222656 10.601562 C 90.222656 9.878906 90.777344 9.328125 91.496094 9.328125 L 92.347656 9.328125 C 93.070312 9.328125 93.621094 9.878906 93.621094 10.601562 C 93.621094 11.324219 93.070312 11.878906 92.347656 11.878906 Z M 83 11.878906 L 82.152344 11.878906 C 81.429688 11.878906 80.878906 11.324219 80.878906 10.601562 C 80.878906 9.878906 81.429688 9.328125 82.152344 9.328125 L 83 9.328125 C 83.722656 9.328125 84.277344 9.878906 84.277344 10.601562 C 84.277344 11.324219 83.722656 11.878906 83 11.878906 Z M 73.65625 11.878906 L 72.804688 11.878906 C 72.085938 11.878906 71.53125 11.324219 71.53125 10.601562 C 71.53125 9.878906 72.085938 9.328125 72.804688 9.328125 L 73.65625 9.328125 C 74.378906 9.328125 74.929688 9.878906 74.929688 10.601562 C 74.929688 11.324219 74.335938 11.878906 73.65625 11.878906 Z M 64.3125 11.878906 L 63.460938 11.878906 C 62.738281 11.878906 62.1875 11.324219 62.1875 10.601562 C 62.1875 9.878906 62.738281 9.328125 63.460938 9.328125 L 64.3125 9.328125 C 65.03125 9.328125 65.585938 9.878906 65.585938 10.601562 C 65.585938 11.324219 64.992188 11.878906 64.3125 11.878906 Z M 54.921875 11.878906 L 54.074219 11.878906 C 53.351562 11.878906 52.796875 11.324219 52.796875 10.601562 C 52.796875 9.878906 53.351562 9.328125 54.074219 9.328125 L 54.921875 9.328125 C 55.644531 9.328125 56.195312 9.878906 56.195312 10.601562 C 56.195312 11.324219 55.644531 11.878906 54.921875 11.878906 Z M 45.578125 11.878906 L 44.726562 11.878906 C 44.003906 11.878906 43.453125 11.324219 43.453125 10.601562 C 43.453125 9.878906 44.003906 9.328125 44.726562 9.328125 L 45.578125 9.328125 C 46.300781 9.328125 46.851562 9.878906 46.851562 10.601562 C 46.851562 11.324219 46.300781 11.878906 45.578125 11.878906 Z M 36.230469 11.878906 L 35.382812 11.878906 C 34.660156 11.878906 34.109375 11.324219 34.109375 10.601562 C 34.109375 9.878906 34.660156 9.328125 35.382812 9.328125 L 36.230469 9.328125 C 36.953125 9.328125 37.507812 9.878906 37.507812 10.601562 C 37.507812 11.324219 36.910156 11.878906 36.230469 11.878906 Z M 36.230469 11.878906 " fill-opacity="1" fill-rule="nonzero"/></g></svg>